<svg width="30" height="30" viewBox="0 0 30 30" fill="none" xmlns="http://www.w3.org/2000/svg">
<g id="Iconly/Curved/3 User">
<g id="3 User">
<path id="Stroke 1" fill-rule="evenodd" clip-rule="evenodd" d="M15 26C10.7226 26 7.06848 25.3513 7.06848 22.754C7.06848 20.1566 10.6988 17.8955 15 17.8955C19.2773 17.8955 22.9314 20.1354 22.9314 22.7314C22.9314 25.3275 19.3011 26 15 26Z" stroke="#FBD244" stroke-width="3" stroke-linecap="round" stroke-linejoin="round"/>
<path id="Stroke 3" fill-rule="evenodd" clip-rule="evenodd" d="M14.9999 14.1921C17.8075 14.1921 20.0842 11.9112 20.0842 9.09673C20.0842 6.28228 17.8075 4 14.9999 4C12.1924 4 9.91567 6.28228 9.91567 9.09673C9.90775 11.9006 12.166 14.1829 14.9643 14.1921H14.9999Z" stroke="#FBD244" stroke-width="3" stroke-linecap="round" stroke-linejoin="round"/>
<path id="Stroke 5" d="M23.4382 12.7928C25.0718 12.3546 26.2762 10.8613 26.2762 9.08344C26.2762 7.22876 24.9648 5.67988 23.219 5.32245" stroke="#FBD244" stroke-width="3" stroke-linecap="round" stroke-linejoin="round"/>
<path id="Stroke 7" d="M24.2054 16.9665C26.5218 16.9665 28.5 18.5405 28.5 19.9464C28.5 20.7738 27.8173 21.6753 26.7819 21.9189" stroke="#FBD244" stroke-width="3" stroke-linecap="round" stroke-linejoin="round"/>
<path id="Stroke 9" d="M6.56315 12.7928C4.92826 12.3546 3.72388 10.8613 3.72388 9.08344C3.72388 7.22876 5.03654 5.67988 6.78104 5.32245" stroke="#FBD244" stroke-width="3" stroke-linecap="round" stroke-linejoin="round"/>
<path id="Stroke 11" d="M5.79456 16.9665C3.47825 16.9665 1.5 18.5405 1.5 19.9464C1.5 20.7738 2.18275 21.6753 3.21941 21.9189" stroke="#FBD244" stroke-width="3" stroke-linecap="round" stroke-linejoin="round"/>
</g>
</g>
</svg>
