<svg width="314" height="82" viewBox="0 0 314 82" fill="none" xmlns="http://www.w3.org/2000/svg">
<path d="M135.46 68C134.82 68 134.22 67.82 133.66 67.46C133.14 67.06 132.78 66.58 132.58 66.02L123.7 39.38C123.38 38.14 123.38 37.14 123.7 36.38C124.06 35.58 124.82 35.18 125.98 35.18C126.74 35.18 127.36 35.4 127.84 35.84C128.36 36.24 128.78 36.94 129.1 37.94L136.66 61.58H134.56L141.7 37.46C141.9 36.78 142.24 36.24 142.72 35.84C143.2 35.4 143.86 35.18 144.7 35.18C145.5 35.18 146.14 35.4 146.62 35.84C147.14 36.24 147.48 36.78 147.64 37.46L153.46 60.14H152.56L159.64 37.94C160.2 36.1 161.24 35.18 162.76 35.18C163.88 35.18 164.64 35.58 165.04 36.38C165.44 37.14 165.42 38.14 164.98 39.38L156.1 66.02C155.94 66.58 155.6 67.06 155.08 67.46C154.56 67.82 153.96 68 153.28 68C152.64 68 152.04 67.82 151.48 67.46C150.92 67.06 150.56 66.58 150.4 66.02L144.22 43.16H144.82L138.34 66.02C138.18 66.58 137.82 67.06 137.26 67.46C136.74 67.82 136.14 68 135.46 68ZM185.8 68.24C182.48 68.24 179.52 67.54 176.92 66.14C174.36 64.7 172.34 62.74 170.86 60.26C169.42 57.74 168.7 54.86 168.7 51.62C168.7 48.34 169.38 45.46 170.74 42.98C172.14 40.46 174.06 38.5 176.5 37.1C178.94 35.66 181.74 34.94 184.9 34.94C188.02 34.94 190.7 35.64 192.94 37.04C195.18 38.4 196.88 40.3 198.04 42.74C199.24 45.14 199.84 47.92 199.84 51.08C199.84 51.84 199.58 52.48 199.06 53C198.54 53.48 197.88 53.72 197.08 53.72H172.9V48.92H196.9L194.44 50.6C194.4 48.6 194 46.82 193.24 45.26C192.48 43.66 191.4 42.4 190 41.48C188.6 40.56 186.9 40.1 184.9 40.1C182.62 40.1 180.66 40.6 179.02 41.6C177.42 42.6 176.2 43.98 175.36 45.74C174.52 47.46 174.1 49.42 174.1 51.62C174.1 53.82 174.6 55.78 175.6 57.5C176.6 59.22 177.98 60.58 179.74 61.58C181.5 62.58 183.52 63.08 185.8 63.08C187.04 63.08 188.3 62.86 189.58 62.42C190.9 61.94 191.96 61.4 192.76 60.8C193.36 60.36 194 60.14 194.68 60.14C195.4 60.1 196.02 60.3 196.54 60.74C197.22 61.34 197.58 62 197.62 62.72C197.66 63.44 197.34 64.06 196.66 64.58C195.3 65.66 193.6 66.54 191.56 67.22C189.56 67.9 187.64 68.24 185.8 68.24ZM221.894 68.24C218.574 68.24 215.614 67.54 213.014 66.14C210.454 64.7 208.434 62.74 206.954 60.26C205.514 57.74 204.794 54.86 204.794 51.62C204.794 48.34 205.474 45.46 206.834 42.98C208.234 40.46 210.154 38.5 212.594 37.1C215.034 35.66 217.834 34.94 220.994 34.94C224.114 34.94 226.794 35.64 229.034 37.04C231.274 38.4 232.974 40.3 234.134 42.74C235.334 45.14 235.934 47.92 235.934 51.08C235.934 51.84 235.674 52.48 235.154 53C234.634 53.48 233.974 53.72 233.174 53.72H208.994V48.92H232.994L230.534 50.6C230.494 48.6 230.094 46.82 229.334 45.26C228.574 43.66 227.494 42.4 226.094 41.48C224.694 40.56 222.994 40.1 220.994 40.1C218.714 40.1 216.754 40.6 215.114 41.6C213.514 42.6 212.294 43.98 211.454 45.74C210.614 47.46 210.194 49.42 210.194 51.62C210.194 53.82 210.694 55.78 211.694 57.5C212.694 59.22 214.074 60.58 215.834 61.58C217.594 62.58 219.614 63.08 221.894 63.08C223.134 63.08 224.394 62.86 225.674 62.42C226.994 61.94 228.054 61.4 228.854 60.8C229.454 60.36 230.094 60.14 230.774 60.14C231.494 60.1 232.114 60.3 232.634 60.74C233.314 61.34 233.674 62 233.714 62.72C233.754 63.44 233.434 64.06 232.754 64.58C231.394 65.66 229.694 66.54 227.654 67.22C225.654 67.9 223.734 68.24 221.894 68.24ZM260.24 68.24C257.12 68.24 254.32 67.52 251.84 66.08C249.36 64.6 247.4 62.6 245.96 60.08C244.52 57.56 243.78 54.72 243.74 51.56V24.2C243.74 23.28 244.02 22.54 244.58 21.98C245.18 21.42 245.92 21.14 246.8 21.14C247.72 21.14 248.46 21.42 249.02 21.98C249.58 22.54 249.86 23.28 249.86 24.2V40.4C251.26 38.72 252.94 37.4 254.9 36.44C256.9 35.44 259.08 34.94 261.44 34.94C264.36 34.94 266.98 35.68 269.3 37.16C271.62 38.6 273.44 40.58 274.76 43.1C276.12 45.58 276.8 48.4 276.8 51.56C276.8 54.72 276.06 57.56 274.58 60.08C273.14 62.6 271.18 64.6 268.7 66.08C266.22 67.52 263.4 68.24 260.24 68.24ZM260.24 62.84C262.28 62.84 264.1 62.36 265.7 61.4C267.3 60.4 268.56 59.04 269.48 57.32C270.44 55.6 270.92 53.68 270.92 51.56C270.92 49.4 270.44 47.48 269.48 45.8C268.56 44.12 267.3 42.8 265.7 41.84C264.1 40.84 262.28 40.34 260.24 40.34C258.24 40.34 256.42 40.84 254.78 41.84C253.18 42.8 251.92 44.12 251 45.8C250.08 47.48 249.62 49.4 249.62 51.56C249.62 53.68 250.08 55.6 251 57.32C251.92 59.04 253.18 60.4 254.78 61.4C256.42 62.36 258.24 62.84 260.24 62.84ZM297.867 68.24C295.067 68.24 292.467 67.82 290.067 66.98C287.707 66.1 285.867 65 284.547 63.68C283.947 63.04 283.687 62.32 283.767 61.52C283.887 60.68 284.287 60 284.967 59.48C285.767 58.84 286.547 58.58 287.307 58.7C288.107 58.78 288.787 59.12 289.347 59.72C290.027 60.48 291.107 61.2 292.587 61.88C294.107 62.52 295.787 62.84 297.627 62.84C299.947 62.84 301.707 62.46 302.907 61.7C304.147 60.94 304.787 59.96 304.827 58.76C304.867 57.56 304.287 56.52 303.087 55.64C301.927 54.76 299.787 54.04 296.667 53.48C292.627 52.68 289.687 51.48 287.847 49.88C286.047 48.28 285.147 46.32 285.147 44C285.147 41.96 285.747 40.28 286.947 38.96C288.147 37.6 289.687 36.6 291.567 35.96C293.447 35.28 295.407 34.94 297.447 34.94C300.087 34.94 302.427 35.36 304.467 36.2C306.507 37.04 308.127 38.2 309.327 39.68C309.887 40.32 310.147 41 310.107 41.72C310.067 42.4 309.727 42.98 309.087 43.46C308.447 43.9 307.687 44.04 306.807 43.88C305.927 43.72 305.187 43.36 304.587 42.8C303.587 41.84 302.507 41.18 301.347 40.82C300.187 40.46 298.847 40.28 297.327 40.28C295.567 40.28 294.067 40.58 292.827 41.18C291.627 41.78 291.027 42.66 291.027 43.82C291.027 44.54 291.207 45.2 291.567 45.8C291.967 46.36 292.727 46.88 293.847 47.36C294.967 47.8 296.607 48.24 298.767 48.68C301.767 49.28 304.127 50.04 305.847 50.96C307.607 51.88 308.867 52.96 309.627 54.2C310.387 55.4 310.767 56.8 310.767 58.4C310.767 60.24 310.267 61.9 309.267 63.38C308.307 64.86 306.867 66.04 304.947 66.92C303.067 67.8 300.707 68.24 297.867 68.24Z" fill="#7657FB"/>
<path d="M51.2736 50.2817L31.2741 7.20566C29.2338 2.81126 24.8291 0 19.9841 0C10.8926 0 4.8683 9.42998 8.68972 17.6794L28.652 60.7727C30.6935 65.1796 35.1083 68 39.9651 68C49.0763 68 55.1105 58.5456 51.2736 50.2817Z" fill="#7657FB"/>
<path d="M92.2736 50.2817L72.2741 7.20566C70.2338 2.81126 65.8291 0 60.9841 0C51.8926 0 45.8683 9.42998 49.6897 17.6794L69.652 60.7727C71.6935 65.1796 76.1083 68 80.9651 68C90.0763 68 96.1105 58.5456 92.2736 50.2817Z" fill="#7657FB"/>
<circle cx="101" cy="12.5" r="12.5" fill="#7657FB"/>
</svg>
