<svg width="189" height="114" viewBox="0 0 189 114" fill="none" xmlns="http://www.w3.org/2000/svg">
<path d="M84.6227 84.1328L51.2901 12.3394C47.8897 5.01539 40.5485 0.329956 32.4736 0.329956C17.321 0.329956 7.28048 16.0466 13.6495 29.7956L46.9201 101.618C50.3225 108.963 57.6805 113.663 65.7752 113.663C80.9605 113.663 91.0175 97.906 84.6227 84.1328Z" fill="#7657FB"/>
<path d="M152.956 84.1328L119.624 12.3394C116.223 5.01539 108.882 0.329956 100.807 0.329956C85.6545 0.329956 75.614 16.0466 81.983 29.7956L115.254 101.618C118.656 108.963 126.014 113.663 134.109 113.663C149.294 113.663 159.351 97.906 152.956 84.1328Z" fill="#7657FB"/>
<circle cx="167.5" cy="21.1633" r="20.8333" fill="#7657FB"/>
</svg>
