<svg width="230" height="168" viewBox="0 0 230 168" fill="none" xmlns="http://www.w3.org/2000/svg">
<path d="M16.052 151C15.284 151 14.564 150.784 13.892 150.352C13.268 149.872 12.836 149.296 12.596 148.624L1.94 116.656C1.556 115.168 1.556 113.968 1.94 113.056C2.372 112.096 3.284 111.616 4.676 111.616C5.588 111.616 6.332 111.88 6.908 112.408C7.532 112.888 8.036 113.728 8.42 114.928L17.492 143.296H14.972L23.54 114.352C23.78 113.536 24.188 112.888 24.764 112.408C25.34 111.88 26.132 111.616 27.14 111.616C28.1 111.616 28.868 111.88 29.444 112.408C30.068 112.888 30.476 113.536 30.668 114.352L37.652 141.568H36.572L45.068 114.928C45.74 112.72 46.988 111.616 48.812 111.616C50.156 111.616 51.068 112.096 51.548 113.056C52.028 113.968 52.004 115.168 51.476 116.656L40.82 148.624C40.628 149.296 40.22 149.872 39.596 150.352C38.972 150.784 38.252 151 37.436 151C36.668 151 35.948 150.784 35.276 150.352C34.604 149.872 34.172 149.296 33.98 148.624L26.564 121.192H27.284L19.508 148.624C19.316 149.296 18.884 149.872 18.212 150.352C17.588 150.784 16.868 151 16.052 151ZM76.4606 151.288C72.4766 151.288 68.9246 150.448 65.8046 148.768C62.7326 147.04 60.3086 144.688 58.5326 141.712C56.8046 138.688 55.9406 135.232 55.9406 131.344C55.9406 127.408 56.7566 123.952 58.3886 120.976C60.0686 117.952 62.3726 115.6 65.3006 113.92C68.2286 112.192 71.5886 111.328 75.3806 111.328C79.1246 111.328 82.3406 112.168 85.0286 113.848C87.7166 115.48 89.7566 117.76 91.1486 120.688C92.5886 123.568 93.3086 126.904 93.3086 130.696C93.3086 131.608 92.9966 132.376 92.3726 133C91.7486 133.576 90.9566 133.864 89.9966 133.864H60.9806V128.104H89.7806L86.8286 130.12C86.7806 127.72 86.3006 125.584 85.3886 123.712C84.4766 121.792 83.1806 120.28 81.5006 119.176C79.8206 118.072 77.7806 117.52 75.3806 117.52C72.6446 117.52 70.2926 118.12 68.3246 119.32C66.4046 120.52 64.9406 122.176 63.9326 124.288C62.9246 126.352 62.4206 128.704 62.4206 131.344C62.4206 133.984 63.0206 136.336 64.2206 138.4C65.4206 140.464 67.0766 142.096 69.1886 143.296C71.3006 144.496 73.7246 145.096 76.4606 145.096C77.9486 145.096 79.4606 144.832 80.9966 144.304C82.5806 143.728 83.8526 143.08 84.8126 142.36C85.5326 141.832 86.3006 141.568 87.1166 141.568C87.9806 141.52 88.7246 141.76 89.3486 142.288C90.1646 143.008 90.5966 143.8 90.6446 144.664C90.6926 145.528 90.3086 146.272 89.4926 146.896C87.8606 148.192 85.8206 149.248 83.3726 150.064C80.9726 150.88 78.6686 151.288 76.4606 151.288ZM119.773 151.288C115.789 151.288 112.237 150.448 109.117 148.768C106.045 147.04 103.621 144.688 101.845 141.712C100.117 138.688 99.2531 135.232 99.2531 131.344C99.2531 127.408 100.069 123.952 101.701 120.976C103.381 117.952 105.685 115.6 108.613 113.92C111.541 112.192 114.901 111.328 118.693 111.328C122.437 111.328 125.653 112.168 128.341 113.848C131.029 115.48 133.069 117.76 134.461 120.688C135.901 123.568 136.621 126.904 136.621 130.696C136.621 131.608 136.309 132.376 135.685 133C135.061 133.576 134.269 133.864 133.309 133.864H104.293V128.104H133.093L130.141 130.12C130.093 127.72 129.613 125.584 128.701 123.712C127.789 121.792 126.493 120.28 124.813 119.176C123.133 118.072 121.093 117.52 118.693 117.52C115.957 117.52 113.605 118.12 111.637 119.32C109.717 120.52 108.253 122.176 107.245 124.288C106.237 126.352 105.733 128.704 105.733 131.344C105.733 133.984 106.333 136.336 107.533 138.4C108.733 140.464 110.389 142.096 112.501 143.296C114.613 144.496 117.037 145.096 119.773 145.096C121.261 145.096 122.773 144.832 124.309 144.304C125.893 143.728 127.165 143.08 128.125 142.36C128.845 141.832 129.613 141.568 130.429 141.568C131.293 141.52 132.037 141.76 132.661 142.288C133.477 143.008 133.909 143.8 133.957 144.664C134.005 145.528 133.621 146.272 132.805 146.896C131.173 148.192 129.133 149.248 126.685 150.064C124.285 150.88 121.981 151.288 119.773 151.288ZM165.788 151.288C162.044 151.288 158.684 150.424 155.708 148.696C152.732 146.92 150.38 144.52 148.652 141.496C146.924 138.472 146.036 135.064 145.988 131.272V98.44C145.988 97.336 146.324 96.448 146.996 95.776C147.716 95.104 148.604 94.768 149.66 94.768C150.764 94.768 151.652 95.104 152.324 95.776C152.996 96.448 153.332 97.336 153.332 98.44V117.88C155.012 115.864 157.028 114.28 159.38 113.128C161.78 111.928 164.396 111.328 167.228 111.328C170.732 111.328 173.876 112.216 176.66 113.992C179.444 115.72 181.628 118.096 183.212 121.12C184.844 124.096 185.66 127.48 185.66 131.272C185.66 135.064 184.772 138.472 182.996 141.496C181.268 144.52 178.916 146.92 175.94 148.696C172.964 150.424 169.58 151.288 165.788 151.288ZM165.788 144.808C168.236 144.808 170.42 144.232 172.34 143.08C174.26 141.88 175.772 140.248 176.876 138.184C178.028 136.12 178.604 133.816 178.604 131.272C178.604 128.68 178.028 126.376 176.876 124.36C175.772 122.344 174.26 120.76 172.34 119.608C170.42 118.408 168.236 117.808 165.788 117.808C163.388 117.808 161.204 118.408 159.236 119.608C157.316 120.76 155.804 122.344 154.7 124.36C153.596 126.376 153.044 128.68 153.044 131.272C153.044 133.816 153.596 136.12 154.7 138.184C155.804 140.248 157.316 141.88 159.236 143.08C161.204 144.232 163.388 144.808 165.788 144.808ZM210.941 151.288C207.581 151.288 204.461 150.784 201.581 149.776C198.749 148.72 196.541 147.4 194.957 145.816C194.237 145.048 193.925 144.184 194.021 143.224C194.165 142.216 194.645 141.4 195.461 140.776C196.421 140.008 197.357 139.696 198.269 139.84C199.229 139.936 200.045 140.344 200.717 141.064C201.533 141.976 202.829 142.84 204.605 143.656C206.429 144.424 208.445 144.808 210.653 144.808C213.437 144.808 215.549 144.352 216.989 143.44C218.477 142.528 219.245 141.352 219.293 139.912C219.341 138.472 218.645 137.224 217.205 136.168C215.813 135.112 213.245 134.248 209.501 133.576C204.653 132.616 201.125 131.176 198.917 129.256C196.757 127.336 195.677 124.984 195.677 122.2C195.677 119.752 196.397 117.736 197.837 116.152C199.277 114.52 201.125 113.32 203.381 112.552C205.637 111.736 207.989 111.328 210.437 111.328C213.605 111.328 216.413 111.832 218.861 112.84C221.309 113.848 223.253 115.24 224.693 117.016C225.365 117.784 225.677 118.6 225.629 119.464C225.581 120.28 225.173 120.976 224.405 121.552C223.637 122.08 222.725 122.248 221.669 122.056C220.613 121.864 219.725 121.432 219.005 120.76C217.805 119.608 216.509 118.816 215.117 118.384C213.725 117.952 212.117 117.736 210.293 117.736C208.181 117.736 206.381 118.096 204.893 118.816C203.453 119.536 202.733 120.592 202.733 121.984C202.733 122.848 202.949 123.64 203.381 124.36C203.861 125.032 204.773 125.656 206.117 126.232C207.461 126.76 209.429 127.288 212.021 127.816C215.621 128.536 218.453 129.448 220.517 130.552C222.629 131.656 224.141 132.952 225.053 134.44C225.965 135.88 226.421 137.56 226.421 139.48C226.421 141.688 225.821 143.68 224.621 145.456C223.469 147.232 221.741 148.648 219.437 149.704C217.181 150.76 214.349 151.288 210.941 151.288Z" fill="#7657FB"/>
<path d="M106.274 50.2817L86.2741 7.20566C84.2338 2.81126 79.8291 0 74.9841 0C65.8926 0 59.8683 9.42998 63.6897 17.6794L83.652 60.7727C85.6935 65.1796 90.1083 68 94.9651 68C104.076 68 110.11 58.5456 106.274 50.2817Z" fill="#7657FB"/>
<path d="M147.274 50.2817L127.274 7.20566C125.234 2.81126 120.829 0 115.984 0C106.893 0 100.868 9.42998 104.69 17.6794L124.652 60.7727C126.694 65.1796 131.108 68 135.965 68C145.076 68 151.11 58.5456 147.274 50.2817Z" fill="#7657FB"/>
<circle cx="156" cy="12.5" r="12.5" fill="#7657FB"/>
</svg>
