<svg width="30" height="30" viewBox="0 0 30 30" fill="none" xmlns="http://www.w3.org/2000/svg">
<path d="M18.219 19.891C19.2819 19.6496 20.2603 19.2042 21.1086 18.5993L22.7848 25.1862C23.288 27.1639 21.1725 28.8075 19.2883 27.9026L16.4634 26.5459C15.5414 26.1031 14.4586 26.1031 13.5366 26.5459L10.7117 27.9026C8.82752 28.8075 6.71197 27.1639 7.21524 25.1862L8.89144 18.5993C9.7397 19.2042 10.7181 19.6496 11.781 19.891M18.219 19.891C16.1017 20.372 13.8983 20.372 11.781 19.891M18.219 19.891C21.1507 19.225 23.4398 17.0079 24.1275 14.1685C24.6242 12.1179 24.6242 9.98383 24.1275 7.93324C23.4398 5.09381 21.1507 2.87677 18.219 2.21073C16.1017 1.72972 13.8983 1.72972 11.781 2.21073C8.84929 2.87677 6.56017 5.09381 5.87248 7.93323C5.37584 9.98383 5.37584 12.1179 5.87248 14.1685C6.56017 17.0079 8.84929 19.225 11.781 19.891" stroke="#7657FB" stroke-width="3"/>
</svg>
