<svg width="24" height="24" viewBox="0 0 24 24" fill="none" xmlns="http://www.w3.org/2000/svg">
<g clip-path="url(#clip0)">
<path d="M17.4984 14.3778C17.2006 14.229 15.7319 13.509 15.4582 13.4106C15.1845 13.311 14.9855 13.2618 14.7866 13.5594C14.5876 13.8558 14.0149 14.5266 13.84 14.7246C13.6664 14.9226 13.4916 14.9466 13.1937 14.7978C12.3136 14.4491 11.5012 13.9505 10.793 13.3242C10.1399 12.7234 9.5799 12.0295 9.13143 11.265C8.9578 10.9674 9.11334 10.8066 9.26286 10.659C9.3967 10.5258 9.5619 10.3122 9.71021 10.1382C9.83305 9.98802 9.93374 9.82115 10.0092 9.64264C10.049 9.56061 10.0675 9.47 10.0631 9.37904C10.0586 9.28808 10.0314 9.19967 9.98392 9.12184C9.90916 8.97304 9.3123 7.51024 9.06391 6.91504C8.82154 6.33664 8.57556 6.41464 8.39108 6.40504C8.21744 6.39664 8.01849 6.39424 7.81953 6.39424C7.66819 6.39844 7.51936 6.43376 7.3824 6.49799C7.24544 6.56222 7.12331 6.65396 7.02371 6.76744C6.68612 7.0856 6.41882 7.47026 6.23883 7.89689C6.05884 8.32353 5.97011 8.7828 5.9783 9.24544C6.07512 10.3665 6.49881 11.4351 7.19735 12.3198C8.4778 14.2303 10.2355 15.7765 12.2978 16.8066C12.8541 17.0445 13.4224 17.2536 14.0004 17.433C14.6097 17.6171 15.2539 17.657 15.8814 17.5494C16.2971 17.4656 16.6907 17.297 17.0375 17.0541C17.3843 16.8112 17.6767 16.4993 17.8963 16.1382C18.0922 15.6942 18.1526 15.2026 18.0699 14.7246C17.9964 14.5998 17.7974 14.5266 17.4984 14.3778V14.3778ZM20.5032 3.48304C18.4533 1.44346 15.7285 0.214732 12.8361 0.0256062C9.94367 -0.163519 7.08075 0.699849 4.78033 2.45497C2.4799 4.2101 0.898744 6.73737 0.331222 9.56628C-0.236299 12.3952 0.248491 15.333 1.69534 17.8326L0 23.9946L6.33521 22.3422C8.08741 23.2917 10.0507 23.7893 12.0458 23.7894H12.0506C14.4141 23.7882 16.7242 23.0899 18.689 21.7827C20.6538 20.4754 22.1853 18.618 23.0898 16.4449C23.9943 14.2719 24.2314 11.8808 23.771 9.57374C23.3106 7.26668 22.1735 5.14718 20.5032 3.48303V3.48304ZM17.3284 20.2698C15.7466 21.2566 13.9175 21.7801 12.0506 21.7806H12.0458C10.2672 21.7805 8.52129 21.3043 6.99116 20.4018L6.62822 20.1882L2.86857 21.1698L3.87178 17.5218L3.63666 17.1474C2.5931 15.4912 2.06646 13.5643 2.12332 11.6102C2.18018 9.65616 2.81799 7.76276 3.95609 6.16945C5.0942 4.57613 6.6815 3.35445 8.51726 2.6589C10.353 1.96334 12.3548 1.82515 14.2695 2.26179C16.1842 2.69844 17.9257 3.69031 19.274 5.11198C20.6223 6.53365 21.5167 8.32127 21.8441 10.2488C22.1715 12.1763 21.9172 14.1572 21.1134 15.9409C20.3097 17.7246 18.9924 19.2311 17.3284 20.2698" fill="black"/>
</g>
<defs>
<clipPath id="clip0">
<rect width="24" height="23.9947" fill="white"/>
</clipPath>
</defs>
</svg>
